<svg xmlns="http://www.w3.org/2000/svg" viewBox="0 0 835.01 2243.59">
    <defs>
        <style>.cls-1 {
            fill: #ffd28a;
        }
        .cls-1, .cls-4 {
            stroke: #020202;
        }
        .cls-1, .cls-10, .cls-11, .cls-14, .cls-4, .cls-5, .cls-6 {
            stroke-width: 6px;
        }
        .cls-10, .cls-12, .cls-13, .cls-2, .cls-3, .cls-4, .cls-8, .cls-9 {
            fill: none;
        }
        .cls-2, .cls-3 {
            stroke: #725f44;
        }
        .cls-12, .cls-13, .cls-2, .cls-3, .cls-8, .cls-9 {
            stroke-linecap: round;
            stroke-width: 3px;
        }
        .cls-3 {
            stroke-dasharray: 24.09 20.08;
        }
        .cls-5 {
            fill: #f48d71;
        }
        .cls-10, .cls-11, .cls-12, .cls-13, .cls-14, .cls-5, .cls-6 {
            stroke: #000;
        }
        .cls-6, .cls-7 {
            fill: #969;
        }
        .cls-7 {
            opacity: 0.5;
        }
        .cls-8, .cls-9 {
            stroke: #433254;
        }
        .cls-8 {
            stroke-dasharray: 23.7 19.75;
        }
        .cls-11 {
            fill: #679ad6;
        }
        .cls-13 {
            stroke-dasharray: 24.47 20.39;
        }
        .cls-14 {
            fill: #2aad3c;
            fill-opacity: 0.74;
        }</style>
    </defs>
    <a href="https://google.at">
        <g id="Schlögel">
            <g id="Füllung">
                <path class="cls-1"
                      d="M615.24,52.66c.25-9.28-18.56-52.6-58.78-49.5S442,83.6,432.7,105.26s-6.19,68.06-27.84,92.81-155.34,129-188.73,164C83.09,501.28,104.75,656,89.28,668.35s-21.66,9.28-24.75,18.56,40.22,65,55.69,108.29,21.66,167.07,21.66,167.07H367.73s61.88-80.44,86.63-95.91,74.25-86.63,77.35-133c.38-5.67,21.32-154,18.56-250.67-3.09-108.29-30.94-241.26,9.28-343.36C569,115.34,614.55,78.4,615.24,52.66Z"/>
            </g>
            <g id="Innere_Konturen" data-name="Innere Konturen">
                <line class="cls-2" x1="555.94" y1="157.66" x2="427.8" y2="145.6"/>
                <line class="cls-2" x1="543.5" y1="358.43" x2="268.73" y2="318.74"/>
                <path class="cls-2"
                      d="M72,697.6s54.38,11,100.78,7.87S309,696.19,309,696.19s56.65,112.65,93.78,143.59c21.91,18.26,60.14,21.55,60.14,21.55"/>
                <line class="cls-2" x1="308.95" y1="696.19" x2="497.81" y2="351.83"/>
                <path class="cls-3"
                      d="M361.54,351.83c-40.22-6.26-121.49,12.17-167.07,62.82-55.69,61.88-78.1,179.75-65,210.38,18.56,43.32,107.62,63.84,145.41,71.16s46.41,52.6,83.54,43.32,105.19-89.73,108.29-179.45S439.67,364,361.54,351.83Z"/>
            </g>
            <g id="Kontur">
                <path class="cls-4"
                      d="M618.34,52.66c.25-9.28-18.57-52.6-58.79-49.5S445.08,83.6,435.8,105.26s-6.19,68.06-27.85,92.81-155.34,129-188.73,164C86.18,501.28,107.84,656,92.37,668.35s-21.65,9.28-24.75,18.56,40.22,65,55.69,108.29,18.57,167.07,18.57,167.07H370.82s61.88-80.44,86.63-95.91,74.26-86.63,77.35-133c.38-5.67,21.33-154,18.56-250.67-3.09-108.29-30.93-241.26,9.29-343.36C572.08,115.34,617.64,78.4,618.34,52.66Z"/>
            </g>
        </g>
    </a>
    <a>
        <g id="Brust">
            <path class="cls-5"
                  d="M305.47,1629l379.91-17a1.35,1.35,0,0,0,1.3-1.46c-.8-10.68-6.18-79.56-11.88-103.79-6.19-26.3-74-224.38-86.63-273.81C524.75,984.7,534.8,733.32,534.8,733.32s-22.43,91.08-72.86,127.26c-49.06,35.21-100,110-113.29,140.62-23.76,54.8-54.4,228.69-57.49,299.85S305.47,1629,305.47,1629Z"/>
        </g>
    </a>
    <a>
        <g id="Rücken">
            <g id="Füllung-2" data-name="Füllung">
                <path class="cls-6"
                      d="M53.47,1629h252s-16.63-255.25-14.31-328,33.28-233.76,50.29-280.34,27.44-58.44,27.44-58.44h-227s-25.79,209.61-36.62,289.28C94.87,1328,58.36,1536.41,53.47,1629Z"/>
            </g>
            <g id="Innere_Konturen-2" data-name="Innere Konturen">
                <path class="cls-7"
                      d="M268.34,1286c5.86,0,7.83-24.17,9.15-35.45.84-7.17,5.93-69.36,10.41-89.06,3.61-15.87,22.59-143,25.69-168.77s43.7-187.82,1.16-197.88c-20.33-4.8-63.61,10.72-67.3,59.56-3.09,41,6.37,106,9.29,140,4.6,53.71-4,107.12-5,128S246.84,1286,268.34,1286Z"/>
                <path class="cls-8"
                      d="M268.34,1286c5.86,0,7.83-24.17,9.15-35.45.84-7.17,5.93-69.36,10.41-89.06,3.61-15.87,22.59-143,25.69-168.77s43.7-187.82,1.16-197.88c-20.33-4.8-63.61,10.72-67.3,59.56-3.09,41,6.37,106,9.29,140,4.6,53.71-4,107.12-5,128S246.84,1286,268.34,1286Z"/>
                <line class="cls-9" x1="99.59" y1="1297.7" x2="291.32" y2="1297.7"/>
            </g>
            <g id="Kontur-2" data-name="Kontur">
                <path class="cls-10"
                      d="M53.47,1629h252s-16.63-255.25-14.31-328,33.28-233.76,50.29-280.34,27.44-58.44,27.44-58.44h-227s-25.79,209.61-36.62,289.28C94.87,1328,58.36,1536.41,53.47,1629Z"/>
            </g>
        </g>
    </a>
    <a>
        <g id="Hals">
            <g id="Füllung-3" data-name="Füllung">
                <path class="cls-11"
                      d="M16.38,2204.09c20.69,18.95,81.92,14.3,91.2,10.7,0,0,67.94-40.1,104.29-53.25S308,2132.93,330,2125.19s124.42-105.59,175.26-100.94c41.51,3.8,119.36,98.62,132.07,114.09s42.86,37.13,55.24,48.73,54.92,56.46,81.22,53.37,61.1-38.67,58-63.43-15.47-51.82-43.32-78.12S701.87,1969,693.36,1956.57s-21.65-18.56-24.75-32.48-1.54-136.91,3.1-175.58c4.3-35.88,13.6-122.67,14.92-135a1.27,1.27,0,0,0-1.33-1.41l-379.83,17h-252s-3.38,54.14-4.41,79.92,1,238.23,1,245.45.32,45.51-11.67,60.59-28,37.13-30,65S-6.54,2183.09,16.38,2204.09Z"/>
            </g>
            <g id="Innere_Kontur" data-name="Innere Kontur">
                <line class="cls-12" x1="305.47" y1="1629.01" x2="306.33" y2="1640.97"/>
                <line class="cls-13" x1="307.8" y1="1661.31" x2="332.87" y2="2009.08"/>
                <line class="cls-12" x1="333.61" y1="2019.24" x2="334.47" y2="2031.21"/>
                <line class="cls-12" x1="325.04" y1="2126.87" x2="334.47" y2="2031.21"/>
            </g>
            <g id="Kontur-3" data-name="Kontur">
                <path class="cls-10"
                      d="M16.38,2204.09c20.69,18.95,81.92,14.3,91.2,10.7,0,0,67.94-40.1,104.29-53.25S308,2132.93,330,2125.19s124.42-105.59,175.26-100.94c41.51,3.8,119.36,98.62,132.07,114.09s42.86,37.13,55.24,48.73,54.92,56.46,81.22,53.37,61.1-38.67,58-63.43-15.47-51.82-43.32-78.12S701.87,1969,693.36,1956.57s-21.65-18.56-24.75-32.48-1.54-136.91,3.1-175.58c4.3-35.88,13.6-122.67,14.92-135a1.27,1.27,0,0,0-1.33-1.41l-379.83,17h-252s-3.38,54.14-4.41,79.92,1,238.23,1,245.45.32,45.51-11.67,60.59-28,37.13-30,65S-6.54,2183.09,16.38,2204.09Z"/>
            </g>
        </g>
    </a>
    <a>
        <g id="Schulter">
            <g id="Füllung-4" data-name="Füllung">
                <path class="cls-14"
                      d="M737.3,2028.27,632.77,2132.8s-93-113.72-134.06-108.29c-33.13,4.38-44.35,19.59-60.85,22.69s-193.43-20.59-243.07-88.14c-46.07-62.71-109.77-166.85-57-258.38,57.74-100.23,163.82-69.68,222.76-49.5,61.75,21.14,160.73,67.82,200.2,95.39,48.73,34,106.46,105.58,106.46,105.58s-3.61,74,7,83.4C696.25,1955.08,737.3,2028.27,737.3,2028.27Z"/>
            </g>
            <g id="Innere_Kontur-2" data-name="Innere Kontur">
                <path class="cls-12" d="M641.93,1902s-101.33,8.51-154.7-3.09-206.3-40.48-349.48-198.27"/>
                <path class="cls-12" d="M666.94,1858c-23.59,55.69-102.29,145-135.81,176.5"/>
            </g>
            <g id="Kontur-4" data-name="Kontur">
                <path class="cls-10"
                      d="M737.3,2028.27,632.77,2132.8s-93-113.72-134.06-108.29c-33.13,4.38-44.35,19.59-60.85,22.69s-193.43-20.59-243.07-88.14c-46.07-62.71-109.77-166.85-57-258.38,57.74-100.23,163.82-69.68,222.76-49.5,61.75,21.14,160.73,67.82,200.2,95.39,48.73,34,106.46,105.58,106.46,105.58s-3.61,74,7,83.4C696.25,1955.08,737.3,2028.27,737.3,2028.27Z"/>
            </g>
        </g>
    </a>
</svg>
