<svg xmlns="http://www.w3.org/2000/svg" viewBox="0 0 601.93 1712.9">
    <defs>
        <style>.cls-1, .cls-10, .cls-11, .cls-12, .cls-14, .cls-15, .cls-16, .cls-18, .cls-2, .cls-4, .cls-5, .cls-6, .cls-9 {
            fill: none;
        }

        .cls-1, .cls-2 {
            stroke: #696969;
        }

        .cls-1, .cls-10, .cls-11, .cls-12, .cls-14, .cls-15, .cls-18, .cls-2, .cls-4, .cls-5, .cls-7, .cls-9 {
            stroke-linecap: round;
        }

        .cls-1, .cls-12, .cls-13, .cls-16, .cls-17, .cls-2, .cls-3, .cls-6, .cls-7 {
            stroke-linejoin: round;
        }

        .cls-1 {
            stroke-width: 4px;
        }

        .cls-10, .cls-11, .cls-14, .cls-15, .cls-18, .cls-2, .cls-4, .cls-5, .cls-9 {
            stroke-width: 3px;
        }

        .cls-3 {
            fill: #ffd28a;
        }

        .cls-3, .cls-6 {
            stroke: #020202;
        }

        .cls-12, .cls-13, .cls-16, .cls-17, .cls-3, .cls-6, .cls-7 {
            stroke-width: 6px;
        }

        .cls-4, .cls-5 {
            stroke: #725f44;
        }

        .cls-5 {
            stroke-dasharray: 23.79 19.82;
        }

        .cls-7, .cls-8 {
            fill: #969;
        }

        .cls-12, .cls-13, .cls-16, .cls-17, .cls-18, .cls-7 {
            stroke: #000;
        }

        .cls-8 {
            opacity: 0.5;
        }

        .cls-10, .cls-11, .cls-9 {
            stroke: #433254;
        }

        .cls-9 {
            stroke-dasharray: 23.58 19.65;
        }

        .cls-11 {
            stroke-dasharray: 26.66 22.21;
        }

        .cls-13 {
            fill: #f48d71;
        }

        .cls-14, .cls-15 {
            stroke: #8e5649;
        }

        .cls-15 {
            stroke-dasharray: 20.57 17.14;
        }

        .cls-17 {
            fill: #2aad3c;
            fill-opacity: 0.74;
        }</style>
    </defs>
    <g id="Unverarbeitete_Teile" data-name="Unverarbeitete Teile">
        <path class="cls-1"
              d="M136.63,1486.13S124,1606.5,144.78,1606.5s31.78-73.69,31.78-73.69,24.42,45.3,34.88,77.07c7.69,23.34,17.44,95.06,24.75,99.56s48.94-2.25,52.31-8.44,17.81-56,28.5-73.41,35.78-71.95,39.56-105c5.07-44.25-3.47-94.59,9.57-120.75,9.7-19.48,39.9-35.13,39.61-38.79s-144.8,46.29-144.8,46.29l-136.13,13.5s-3.93,28.69-1.31,41.25C125.61,1474.19,136.63,1486.13,136.63,1486.13Z"/>
        <line class="cls-2" x1="338.53" y1="1583" x2="260.94" y2="1409.34"/>
        <path class="cls-1"
              d="M578.47,1496.17s22.54-9.76,21.41-12.58-29.29-31.21-25.91-36.84,10.12-4.5,10.12-4.5-20-27-31.21-34-30.38-31.13-30.38-31.13l-39.75,51Z"/>
        <path class="cls-1"
              d="M2,593.72S32.47,540,47.75,521c19.88-24.75,46.5-36.43,46.5-36.43s-2.17-11.6-1.68-20.2,1.81-19.12,1.81-19.12S67.46,462,57.88,473C27.13,508.22,2,593.72,2,593.72Z"/>
    </g>
    <g id="Schlögel">
        <g id="Füllung">
            <path class="cls-3"
                  d="M369.5,48.09C369.31,9,359.94,3,359.94,3s-8.23,10.29-12.19,10.59c-2.61.2-7.12-6.46-7.12-6.46L324.31,57.38S305.94,44.44,308.19,57c15.38,85.57-12.13,114.06-27.56,132.33-42.75,50.63-39.38,105.56-39.38,105.56s-42-.56-90.75,43.5c-54.32,49.1-57.19,114.41-57.75,121.5-2.25,28.5,17.25,96,28.5,127.5a213.41,213.41,0,0,1,12,59.25l138.66-17.43s29.37-28.12,46.36-40.84c24.61-18.41,26.76-22.73,45.23-51.23.83-1.28-.07-85.7.75-156,.58-50.17,14.05-121.69-.75-169.5-7.87-25.41-8.32-47.88-2.32-77.13C365.13,115.24,369.59,66.82,369.5,48.09Z"/>
        </g>
        <g id="Innere_Konturen" data-name="Innere Konturen">
            <line class="cls-4" x1="359.06" y1="193.4" x2="291.24" y2="176.24"/>
            <path class="cls-4" d="M365.5,353.27s-39.87,10.39-124.25-58.43"/>
            <path class="cls-4"
                  d="M94.38,485.44s25.37,26.58,63.34,40.64c23.61,8.74,47.72,17.11,79.31,15.5,0,0,4.28,37.92,16.6,53.67,10.12,13,24.42,27.68,24.42,27.68"/>
            <path class="cls-4" d="M103.1,410c77.4-40.18,124.49-113.5,124.49-113.5"/>
            <path class="cls-5"
                  d="M259.53,321.75c-29.15-5.14-66.41-5.89-99.56,30.94-40.5,45-51.73,90.22-42.19,112.5,13.5,31.5,32.21,30.39,60.19,37.69,27.09,7.06,40.52,44.55,67.52,37.8S309,475.31,312.41,413.44C313.94,385.34,297.78,328.5,259.53,321.75Z"/>
            <path class="cls-4" d="M237,541.58c-3.09-76.67,58.22-122.8,127.08-146.7"/>
        </g>
        <g id="Kontur">
            <path class="cls-6"
                  d="M369.5,48.09C369.31,9,359.94,3,359.94,3s-8.23,10.29-12.19,10.59c-2.61.2-7.12-6.46-7.12-6.46L324.31,57.38S305.94,44.44,308.19,57c15.38,85.57-12.13,114.06-27.56,132.33-42.75,50.63-39.38,105.56-39.38,105.56s-42-.56-90.75,43.5c-54.32,49.1-57.19,114.41-57.75,121.5-2.25,28.5,17.25,96,28.5,127.5a183.6,183.6,0,0,1,10.63,59.25l140-17.43s29.37-28.12,46.36-40.84c24.61-18.41,26.76-22.73,45.23-51.23.83-1.28-.07-85.7.75-156,.58-50.17,14.05-121.69-.75-169.5-7.87-25.41-8.32-47.88-2.32-77.13C365.13,115.24,369.59,66.82,369.5,48.09Z"/>
        </g>
    </g>
    <g id="Karree">
        <g id="Füllung-2" data-name="Füllung">
            <path class="cls-7"
                  d="M124.81,1422.84l136.13-13.5s-6.94-462-8.44-515.25c-1.49-52.88-6-177,2.25-222.56,3.72-20.55,15.38-41.25,15.38-41.25L131.88,646.59s1.42,167.68-.32,226.13C127.25,1017.84,65,1295.34,124.81,1422.84Z"/>
        </g>
        <g id="Innere_Konturen-2" data-name="Innere Konturen">
            <path class="cls-8"
                  d="M228.32,857.42c4.25.26,8.81-33.64,9.18-52,.28-13.92,4.5-75.38,5.63-120,.93-37.14,19.87-95.63-5.25-108.38-15.5-7.86-37.45-8.14-40.13,27.38-2.25,29.81,8.75,70.49,10.88,95.25,3.34,39.05,7.12,73.87,7.5,98.25C216.38,814.41,219.31,856.88,228.32,857.42Z"/>
            <path class="cls-9"
                  d="M228.32,857.42c4.25.26,8.81-33.64,9.18-52,.28-13.92,4.5-75.38,5.63-120,.93-37.14,19.87-95.63-5.25-108.38-15.5-7.86-37.45-8.14-40.13,27.38-2.25,29.81,8.75,70.49,10.88,95.25,3.34,39.05,7.12,73.87,7.5,98.25C216.38,814.41,219.31,856.88,228.32,857.42Z"/>
            <line class="cls-10" x1="131.68" y1="869.53" x2="250.85" y2="863.91"/>
            <line class="cls-10" x1="161.55" y1="1127.48" x2="106.23" y2="1130.79"/>
            <line class="cls-10" x1="161.55" y1="1127.48" x2="173.54" y2="1126.83"/>
            <line class="cls-11" x1="195.72" y1="1125.61" x2="233.43" y2="1123.55"/>
            <line class="cls-10" x1="244.52" y1="1122.94" x2="256.5" y2="1122.29"/>
        </g>
        <g id="Kontur-2" data-name="Kontur">
            <path class="cls-12"
                  d="M124.81,1422.84l136.13-13.5s-6.94-462-8.44-515.25c-1.49-52.88-6-177,2.25-222.56,3.72-20.55,15.38-41.25,15.38-41.25L131.88,646.59s1.42,167.68-.32,226.13C127.25,1017.84,65,1295.34,124.81,1422.84Z"/>
        </g>
    </g>
    <g id="Bauch">
        <g id="Füllung-3" data-name="Füllung">
            <path class="cls-13"
                  d="M260.94,1409.34l145.12-47.25s12.3-61.65,25.32-138.37c.24-1.44-4-6.79-3.85-18.56.19-13.78,5.2-22.78,5.25-27.75,1.6-170.44-25.17-253.79-35.15-295.69-12.27-51.46-30.08-180.22-31.5-226.5-1.5-48.75-2.4-123.09-2.4-123.09s-8.19,25.14-28.4,43c-19.28,17.06-50.9,28.35-67.92,61-24.53,47.07-18,112.18-14.91,247.22,2,87.32,2.53,178,4.63,265.78C259.62,1253.34,260.63,1350.9,260.94,1409.34Z"/>
        </g>
        <g id="Innere_Konturen_Kopie" data-name="Innere Konturen Kopie">
            <line class="cls-14" x1="432.85" y1="1117.44" x2="335.89" y2="1119.09"/>
            <line class="cls-14" x1="257.13" y1="1122.71" x2="269.11" y2="1122.16"/>
            <line class="cls-15" x1="286.24" y1="1121.37" x2="315.34" y2="1120.04"/>
            <line class="cls-14" x1="323.9" y1="1119.64" x2="335.89" y2="1119.09"/>
        </g>
        <g id="Kontur-3" data-name="Kontur">
            <path class="cls-16"
                  d="M260.94,1409.34l145.12-47.25s12.3-61.65,25.32-138.37c.24-1.44-4-6.79-3.85-18.56.19-13.78,5.2-22.78,5.25-27.75,1.6-170.44-25.17-253.79-35.15-295.69-12.27-51.46-30.08-180.22-31.5-226.5-1.5-48.75-2.4-123.09-2.4-123.09s-8.19,25.14-28.4,43c-19.28,17.06-50.9,28.35-67.92,61-24.53,47.07-18,112.18-14.91,247.22,2,87.32,2.53,178,4.63,265.78C259.62,1253.34,260.63,1350.9,260.94,1409.34Z"/>
        </g>
    </g>
    <g id="Schulter">
        <g id="Füllung-4" data-name="Füllung">
            <path class="cls-17"
                  d="M522.5,1377.09l-39.75,51s-31.69-24.37-42.94-37.31c-15.95-18.34-30.94-27.22-34.31-27-46.12,3.1-92.25,9.56-159.75-26.44-98-52.28-130.3-131.65-92.08-198.28,28.33-49.4,99.07-56,141.93-41.31,44.91,15.37,98.65,69.34,130.9,113.59,25.46,34.94,72.75,106.5,80.25,120.75C516.73,1351.05,522.5,1377.09,522.5,1377.09Z"/>
        </g>
        <g id="Innere_Kontur" data-name="Innere Kontur">
            <path class="cls-18"
                  d="M429,1238.55c-19.31-4.28-31.4,17.79-60.94,24.12-38.83,8.32-103.78-6.89-212.06-128.19"/>
            <path class="cls-18" d="M433.13,1220.57c-9.25,34.46-15.82,101.73-27.63,143.21"/>
        </g>
        <g id="Kontur-4" data-name="Kontur">
            <path class="cls-16"
                  d="M522.5,1377.09l-39.75,51s-31.69-24.37-42.94-37.31c-15.95-18.34-30.94-27.22-34.31-27-46.12,3.1-92.25,9.56-159.75-26.44-98-52.28-130.3-131.65-92.08-198.28,28.33-49.4,99.07-56,141.93-41.31,44.91,15.37,98.65,69.34,130.9,113.59,25.46,34.94,72.75,106.5,80.25,120.75C516.73,1351.05,522.5,1377.09,522.5,1377.09Z"/>
        </g>
    </g>
</svg>
