<svg xmlns="http://www.w3.org/2000/svg" viewBox="0 0 648.64 1606.94">
    <defs>
        <style>.cls-1 {
            isolation: isolate;
        }
        .cls-2, .cls-35 {
            fill: #2b6b45;
        }
        .cls-10, .cls-11, .cls-12, .cls-13, .cls-14, .cls-18, .cls-2, .cls-22, .cls-23, .cls-25, .cls-27, .cls-28, .cls-35, .cls-39, .cls-5, .cls-6, .cls-7, .cls-8, .cls-9 {
            stroke: #000;
            stroke-width: 6px;
        }
        .cls-10, .cls-11, .cls-12, .cls-13, .cls-14, .cls-17, .cls-18, .cls-2, .cls-22, .cls-23, .cls-24, .cls-28, .cls-3, .cls-34, .cls-35, .cls-36, .cls-37, .cls-39, .cls-4, .cls-5, .cls-6, .cls-7, .cls-8, .cls-9 {
            stroke-linejoin: round;
        }
        .cls-10, .cls-11, .cls-12, .cls-13, .cls-15, .cls-16, .cls-17, .cls-20, .cls-21, .cls-22, .cls-24, .cls-26, .cls-27, .cls-3, .cls-31, .cls-32, .cls-33, .cls-34, .cls-36, .cls-37, .cls-39, .cls-4, .cls-5, .cls-6, .cls-7, .cls-8, .cls-9 {
            fill: none;
        }
        .cls-3, .cls-36, .cls-37, .cls-4 {
            stroke: #0e4926;
        }
        .cls-10, .cls-11, .cls-12, .cls-13, .cls-14, .cls-15, .cls-16, .cls-17, .cls-20, .cls-21, .cls-23, .cls-24, .cls-3, .cls-31, .cls-32, .cls-33, .cls-36, .cls-37, .cls-39, .cls-4, .cls-5, .cls-6, .cls-7, .cls-8, .cls-9 {
            stroke-linecap: round;
        }
        .cls-15, .cls-16, .cls-17, .cls-20, .cls-21, .cls-24, .cls-26, .cls-3, .cls-31, .cls-32, .cls-33, .cls-34, .cls-36, .cls-37, .cls-4 {
            stroke-width: 3px;
        }
        .cls-24, .cls-3, .cls-36 {
            stroke-dasharray: 24 20;
        }
        .cls-6 {
            stroke-dasharray: 21.9 18.25;
        }
        .cls-7 {
            stroke-dasharray: 22.18 18.48;
        }
        .cls-8 {
            stroke-dasharray: 24.52 20.44;
        }
        .cls-9 {
            stroke-dasharray: 15.6 13;
        }
        .cls-10 {
            stroke-dasharray: 20.39 16.99;
        }
        .cls-11 {
            stroke-dasharray: 14.2 11.84;
        }
        .cls-12 {
            stroke-dasharray: 22.59 18.82;
        }
        .cls-13 {
            stroke-dasharray: 22.59 18.82;
        }
        .cls-14 {
            fill: #bd72c1;
        }
        .cls-15, .cls-16, .cls-17 {
            stroke: #5c4972;
        }
        .cls-16 {
            stroke-dasharray: 24.22 20.18;
        }
        .cls-18, .cls-19 {
            fill: #97cb78;
        }
        .cls-19, .cls-30 {
            opacity: 0.5;
        }
        .cls-20, .cls-21 {
            stroke: #4c6037;
        }
        .cls-20 {
            stroke-dasharray: 23.48 19.57;
        }
        .cls-23 {
            fill: #5692cc;
        }
        .cls-24 {
            stroke: #285172;
        }
        .cls-25 {
            fill: #efc48b;
        }
        .cls-26 {
            stroke: #754d1c;
        }
        .cls-28, .cls-30 {
            fill: #f48d71;
        }
        .cls-29, .cls-35, .cls-36, .cls-37, .cls-38, .cls-39 {
            mix-blend-mode: darken;
        }
        .cls-31, .cls-32, .cls-33, .cls-34 {
            stroke: #936054;
        }
        .cls-32 {
            stroke-dasharray: 23.5 19.59;
        }
        .cls-33 {
            stroke-dasharray: 26.17 21.81;
        }
        .cls-35, .cls-36, .cls-37, .cls-38, .cls-39 {
            opacity: 0.31;
        }</style>
    </defs>
    <g class="cls-1">
        <g id="Hinteres">
            <g id="Füllung">
                <path class="cls-2"
                      d="M397.2,1021.76l8.72,93.65s3.75,26.73,4.5,54.29.43,54.27.43,54.27,31.21,18,61.59,64.41c31.63,48.38,58.21,99.57,58.21,99.57s-27.7,59.61-99.33,71.26c-63.37,10.3-105,32.8-121.87,45.17S263.32,1537,263.32,1537l4.5-29.25v-36s-40.5-11.25-75.37-43.88-40.5-50.62-40.5-50.62H90.07s-13.5-99-3.37-194.63S107,1046.51,107,1046.51Z"/>
                <path class="cls-2"
                      d="M555.7,1202.88c-.43,6.78-3.25,72.75-16.92,125.65a269.42,269.42,0,0,0-8.13,59.42s-13.58-26.91-47.95-83.54c-38.4-63.25-71.85-80.44-71.85-80.44s1-27.84-.43-54.27c-1.38-25.84-4.5-54.29-4.5-54.29L554.49,1108S557.39,1175.88,555.7,1202.88Z"/>
            </g>
            <g id="Innere_Konturen_Kopie_Kopie" data-name="Innere Konturen Kopie Kopie">
                <polygon class="cls-3"
                         points="254.89 1187.51 121.39 1291.55 259.39 1452.26 363.64 1361.51 254.89 1187.51"/>
                <path class="cls-3" d="M410.85,1224s-1.46,67.79-19.46,134.54a1036.67,1036.67,0,0,1-42.81,124.36"/>
                <line class="cls-3" x1="233.14" y1="1138.01" x2="267.82" y2="1471.76"/>
                <path class="cls-4"
                      d="M90.42,1149.84s45.11-2.93,75.59-5.18c38.25-2.81,67.13-6.65,67.13-6.65s50.11-10.59,92.86-15.65,79.92-6.95,79.92-6.95"/>
                <line class="cls-4" x1="231.41" y1="1035.9" x2="233.14" y2="1138.01"/>
            </g>
            <g id="Kontur">
                <polyline class="cls-5" points="385.24 1022.78 397.2 1021.76 398.31 1033.71"/>
                <path class="cls-6" d="M400,1051.88l5.92,63.53s3.75,26.73,4.5,54.29c.32,11.9.45,23.65.48,33.15"/>
                <path class="cls-5" d="M410.92,1212c0,7.38-.07,12-.07,12a99.72,99.72,0,0,1,9.84,6.85"/>
                <path class="cls-7" d="M434.72,1242.84a252,252,0,0,1,37.72,45.54c19.78,30.26,37.59,61.62,48.16,80.86"/>
                <path class="cls-5" d="M525,1377.36c3.6,6.68,5.63,10.59,5.63,10.59a92.83,92.83,0,0,1-6,10.37"/>
                <path class="cls-8"
                      d="M512.2,1414.52a136.24,136.24,0,0,1-80.88,44.69c-63.37,10.3-105,32.8-121.87,45.17-8,5.87-18.78,13.5-27.9,19.91"/>
                <path class="cls-5" d="M273.17,1530.16l-9.85,6.85,1.83-11.86"/>
                <polyline class="cls-9" points="267.13 1512.3 267.82 1507.76 267.82 1490.26"/>
                <path class="cls-5" d="M267.82,1483.76v-12s-4.31-1.2-11.32-3.94"/>
                <path class="cls-10" d="M241,1461a200.83,200.83,0,0,1-48.5-33.08c-14.58-13.64-24-24.72-30.13-33"/>
                <path class="cls-5" d="M157.51,1387.87c-4.42-7-5.56-10.61-5.56-10.61H140"/>
                <line class="cls-11" x1="128.11" y1="1377.26" x2="107.99" y2="1377.26"/>
                <path class="cls-5" d="M102.07,1377.26h-12s-.58-4.28-1.41-11.92"/>
                <path class="cls-12" d="M86.82,1346.61c-3.22-36.67-6.78-101.06-.12-164,6-56.83,12-94.19,15.93-115.15"/>
                <path class="cls-5" d="M104.41,1058.23c1.6-8,2.54-11.72,2.54-11.72l12-1"/>
                <line class="cls-13" x1="137.66" y1="1043.89" x2="375.86" y2="1023.58"/>
                <path class="cls-5"
                      d="M530.65,1388c-1.83-33.19,17-84.14,21.8-140a997,997,0,0,0,2-140l-148.57,7.38s6.65,39.1,4.93,108.56"/>
            </g>
        </g>
        <g id="Gustostücke_Knöpfel" data-name="Gustostücke Knöpfel">
            <g id="Füllung-2" data-name="Füllung">
                <path class="cls-14"
                      d="M289.39,233.51l-.77-16.88S222,253.09,193.29,285.16c-99.65,111.47-88,147.1-92.81,151.88-10.19,10.19-22.39,7.16-21.7,18.2.45,7.1,23.11,79.21,36.89,112.3,19.25,46.22,26.44,108.28,26.44,108.28l150.72-1.69s1.86-8.32,18-17.72c12.09-7,31-15.79,65.71-39.09,47.25-31.69,73.19-78,69.85-126.84-1.58-23-6.92-55.92-8.72-88-3-53.79-2.25-105.47-2.25-105.47l-44.06,14.15s-24.45-36.64-48.45-52.39A208.08,208.08,0,0,0,289.39,233.51Z"/>
            </g>
            <g id="Innere_Konturen" data-name="Innere Konturen">
                <path class="cls-15"
                      d="M446,484.59s-29.31,71.06-84.75,79.29c-36,5.35-71.81-19.5-71.81-19.5s-9.06-7.09-18.75-22.12c-12.94-20.06-10.88-37.5-10.88-37.5L391.39,311.13"/>
                <path class="cls-16"
                      d="M299.61,260.41c-29.25-4.55-71.36,2.09-104.51,38.92-40.5,45-64,106.33-59.84,116.05,6,13.88,43.45,28.71,66.38,45,57,40.5,56.13,82.53,90,79,28.5-3,83.59-109.62,85.59-174.87C378.92,309.35,356.42,269.25,299.61,260.41Z"/>
                <path class="cls-15" d="M304.81,660.33c-10.92-12.82-19-61.84-15.27-115.84"/>
                <path class="cls-15" d="M127.36,602s24.84-11.18,69.41-50c43.88-38.25,63-67.15,63-67.15"/>
                <path class="cls-17"
                      d="M226.32,524.06,103,443s53.56-47.48,104.91-103.79c53.34-58.5,81.47-105.65,81.47-105.65"/>
            </g>
            <g id="Kontur-2" data-name="Kontur">
                <path class="cls-5"
                      d="M289.39,233.51l-.77-16.88S222,253.09,193.29,285.16c-99.65,111.47-88,147.1-92.81,151.88-10.19,10.19-22.39,7.16-21.7,18.2.45,7.1,23.11,79.21,36.89,112.3,19.25,46.22,26.44,108.28,26.44,108.28l150.72-1.69s1.86-8.32,18-17.72c12.09-7,31-15.79,65.71-39.09,47.25-31.69,73.19-78,69.85-126.84-1.58-23-6.92-55.92-8.72-88-3-53.79-2.25-105.47-2.25-105.47l-44.06,14.15s-24.45-36.64-48.45-52.39A208.08,208.08,0,0,0,289.39,233.51Z"/>
            </g>
        </g>
        <g id="Englischer">
            <g id="Füllung-3" data-name="Füllung">
                <path class="cls-18"
                      d="M59.53,1150.25s44.31-.73,94.95-4.46c45.75-3.38,77.53-8.53,77.53-8.53s.88-157.73,9-210c11.35-73.06,32.3-149.94,37.5-185.63a583,583,0,0,1,14.25-67.5l-150,1.88s7.21,50.35-2.25,104.25c-9,51.07-32,110.85-37.5,138.75C92.12,973.84,63.09,1082.91,59.53,1150.25Z"/>
            </g>
            <g id="Innere_Konturen-2" data-name="Innere Konturen">
                <path class="cls-19"
                      d="M217.2,917.13c14-5.09,25.67-90.43,28.93-104.75,2.63-11.55,14.05-80,27.32-116.31,6.48-17.74,31.31-84.55-1.31-97.31-25.88-10.13-42.93,9.84-45.38,45.37-.43,6.32,3.65.75,3.08,13.13-1.8,39.16-8.33,102-8.33,138.37C221.51,832.38,206.89,920.88,217.2,917.13Z"/>
                <path class="cls-20"
                      d="M217.2,917.13c14-5.09,25.67-90.43,28.93-104.75,2.63-11.55,14.05-80,27.32-116.31,6.48-17.74,31.31-84.55-1.31-97.31-25.88-10.13-42.93,9.84-45.38,45.37-.43,6.32,3.65.75,3.08,13.13-1.8,39.16-8.33,102-8.33,138.37C221.51,832.38,206.89,920.88,217.2,917.13Z"/>
                <line class="cls-21" x1="102.14" y1="923.33" x2="241.81" y2="922.2"/>
            </g>
            <g id="Kontur-3" data-name="Kontur">
                <path class="cls-22"
                      d="M59.53,1150.25s44.31-.73,94.95-4.46c45.75-3.38,77.53-8.53,77.53-8.53s.88-157.73,9-210c11.35-73.06,32.3-149.94,37.5-185.63a583,583,0,0,1,14.25-67.5l-150,1.88s7.21,50.35-2.25,104.25c-9,51.07-32,110.85-37.5,138.75C92.12,973.84,63.09,1082.91,59.53,1150.25Z"/>
            </g>
        </g>
        <g id="Vorderes">
            <g id="Füllung-4" data-name="Füllung">
                <path class="cls-23"
                      d="M295.53,669.34c-7.21,8.14-12.37,51.32-19,85.23-10.65,54.62-26.87,117.19-34.73,167.63-11.39,73.12-9.8,215.06-9.8,215.06s57.62-9,79.58-11.79c21.52-2.7,94.33-10.06,94.33-10.06L554.49,1108s-2-89.79-34.46-174.84c-15.38-40.31-51.39-176.5-56.27-245.93-3.77-53.74-17.05-180.75-17.05-180.75s4.22,36.38-40.83,86.58C373.29,629.41,314.51,647.88,295.53,669.34Z"/>
                <path class="cls-23"
                      d="M167.7,1399.2v108.56H268.39v-34.88s-28.74-8.73-54.89-29S167.7,1399.2,167.7,1399.2Z"/>
            </g>
            <g id="Innere_Konturen_Kopie" data-name="Innere Konturen Kopie">
                <path class="cls-24"
                      d="M512.85,912.19l-115.63,7.53s-1.94,60.31-.21,98.76c1.69,37.48,8.91,96.93,8.91,96.93"/>
            </g>
            <g id="Kontur-4" data-name="Kontur">
                <path class="cls-5"
                      d="M295.53,669.34c-7.21,8.14-12.37,51.32-19,85.23-10.65,54.62-26.87,117.19-34.73,167.63-11.39,73.12-9.8,215.06-9.8,215.06s57.62-9,79.58-11.79c21.52-2.7,94.33-10.06,94.33-10.06L554.49,1108s-2-89.79-34.46-174.84c-15.38-40.31-51.39-176.5-56.27-245.93-3.77-53.74-17.05-180.75-17.05-180.75s4.22,36.38-40.83,86.58C373.29,629.41,314.51,647.88,295.53,669.34Z"/>
            </g>
        </g>
        <g id="Gustostücke_Vorderviertel" data-name="Gustostücke Vorderviertel">
            <g id="Füllung-5" data-name="Füllung">
                <path class="cls-25"
                      d="M269.23,1474.85s34.64-36.71,75.7-51.33c34.69-12.35,48.07-4.74,86.86-1,44.81,4.34,93.94-42.19,93.94-42.19s-44.32-78.51-76.22-120.37c-16.89-22.18-58.5-55.13-110.78-77.68-57.21-24.68-117.31-47.88-151.34-38.48-7,2-128.25,6.75-128.25,6.75S45.81,1267.7,45.26,1306.76c-.19,13.4,16.69,38.15,17.25,70.5l90,1.12s22.78,35.44,50.25,58.13C230.69,1459.58,269.23,1474.85,269.23,1474.85Z"/>
            </g>
            <g id="Innere_Kontur" data-name="Innere Kontur">
                <path class="cls-26"
                      d="M269.23,1474.85s34.64-36.71,75.7-51.33c34.69-12.35,48.07-4.74,86.86-1,44.81,4.34,93.94-42.19,93.94-42.19s-44.32-78.51-76.22-120.37c-16.89-22.18-58.5-55.13-110.78-77.68-57.21-24.68-117-46.61-151.34-38.48-42,9.94-73.27,34.68-81.77,57-24.38,63.93,13.27,120.46,46.89,177.56C185.14,1433.79,239.14,1462.38,269.23,1474.85Z"/>
                <line class="cls-26" x1="103.39" y1="1207.15" x2="282.54" y2="1462.3"/>
                <path class="cls-26" d="M186.24,1144.1s33.77,42.66,61.52,91.41c27.22,47.81,103,186.06,103,186.06"/>
            </g>
            <g id="Kontur-5" data-name="Kontur">
                <path class="cls-27"
                      d="M269.23,1474.85s34.64-36.71,75.7-51.33c34.69-12.35,48.07-4.74,86.86-1,44.81,4.34,93.94-42.19,93.94-42.19s-44.32-78.51-76.22-120.37c-16.89-22.18-58.5-55.13-110.78-77.68-57.21-24.68-117.31-47.88-151.34-38.48-7,2-128.25,6.75-128.25,6.75S45.81,1267.7,45.26,1306.76c-.19,13.4,16.69,38.15,17.25,70.5l90,1.12s22.8,36.13,50.25,58.13C232,1460,269.23,1474.85,269.23,1474.85Z"/>
            </g>
        </g>
        <g id="Gulaschfleisch">
            <g id="Füllung-6" data-name="Füllung">
                <path class="cls-28"
                      d="M62,1377.82s2,13.27-9.56,32.63C39,1432.86,2.05,1455.19,3,1473.3c1.41,26.44,44.05,49.63,92,73.13,36.11,17.71,97.82,17.57,130.82,5.77,56.35-20.16,70.13-39.38,107.82-61.32s66.61-25.58,83.81-22.5c19.87,3.57,42.94,38.25,100.69,87.75s96,48.8,103.07,47.39,6.75-9.84,15.19-18.84,9.24-9.8,9.24-18.8-12.75-15.75-27.75-32.25-62.25-85.5-75.75-108.75-10.69-36.56-10.69-36.56l-4.88-6.75s-31.5,21.75-45.75,28.5-28.31,12-40.5,12.38-32.45-4.45-52.7-5.94C328,1412.13,269,1474.57,269,1474.57L268.2,1508l-100.13.37V1399.57l-15.37-21.75Z"/>
                <path class="cls-28"
                      d="M492.45,46.57c-2,12.87-16.32,25.87-23.25,40.13-6.75,13.87-3.75,75-13.31,104.43C441,237.12,435.45,297,435.45,297l-44.06,14.15s-27.8-40.47-48.45-52.39-53.55-25.23-53.55-25.23l-.77-16.88s31.23-21.9,41.27-40.5C346.57,145.2,348.84,75,365.61,60.35c16.5-14.44,28.87-17.25,44.53-30.47C420.34,21.27,435.66,3,442.76,3c4.5,0,7.13,9.63,12.38,13.38s18.64,7.27,25.59,11.79C487.41,32.52,493.46,40,492.45,46.57Z"/>
            </g>
            <g id="Innere_Kontur-2" data-name="Innere Kontur">
                <g class="cls-29">
                    <path class="cls-30"
                          d="M332.73,330.31c65.25,34.87,102.7-1.83,102.7-1.83l0-31.5-44.06,14.15S360.53,268,342.94,258.74s-52.24-25.23-52.24-25.23l-2.08-16.88.77,16.88S284.58,304.57,332.73,330.31Z"/>
                    <path class="cls-31" d="M425.67,335.41a51.57,51.57,0,0,0,9.76-6.93v-12"/>
                    <polyline class="cls-31" points="435.44 308.98 435.45 296.98 424.02 300.65"/>
                    <path class="cls-31" d="M402.81,307.46l-11.42,3.67s-2.79-3.9-7.18-9.61"/>
                    <path class="cls-32"
                          d="M372,286.24c-9.54-11.33-20.74-23.16-29-27.5-8.74-4.58-21.69-10.84-32.52-16"/>
                    <path class="cls-31" d="M301.57,238.58c-6.47-3-10.87-5.07-10.87-5.07l-2.08-16.88.54,12"/>
                    <path class="cls-33"
                          d="M289.71,250.41c1.76,22.67,9.74,62.11,43,79.9,37.48,20,65.79,16.44,83.1,9.76"/>
                </g>
                <line class="cls-34" x1="263.02" y1="1536.23" x2="268.2" y2="1507.95"/>
            </g>
            <g id="Kontur-6" data-name="Kontur">
                <path class="cls-22"
                      d="M62,1377.82s2,13.27-9.56,32.63C39,1432.86,2.05,1455.19,3,1473.3c1.41,26.44,44.05,49.63,92,73.13,36.11,17.71,97.82,17.57,130.82,5.77,56.35-20.16,70.13-39.38,107.82-61.32s66.61-25.58,83.81-22.5c19.87,3.57,42.94,38.25,100.69,87.75s96,48.8,103.07,47.39,6.75-9.84,15.19-18.84,9.24-9.8,9.24-18.8-12.75-15.75-27.75-32.25-62.25-85.5-75.75-108.75-10.69-36.56-10.69-36.56l-4.88-6.75s-31.5,21.75-45.75,28.5-28.31,12-40.5,12.38-32.45-4.45-52.7-5.94C328,1412.13,269,1474.57,269,1474.57L268.2,1508l-100.13.37V1399.57l-15.37-21.75Z"/>
                <path class="cls-22"
                      d="M492.45,46.57c-2,12.87-16.32,25.87-23.25,40.13-6.75,13.87-3.75,75-13.31,104.43C441,237.12,435.45,297,435.45,297l-44.06,14.15s-27.8-40.47-48.45-52.39-53.55-25.23-53.55-25.23l-.77-16.88s31.23-21.9,41.27-40.5C346.57,145.2,348.84,75,365.61,60.35c16.5-14.44,28.87-17.25,44.53-30.47C420.34,21.27,435.66,3,442.76,3c4.5,0,7.13,9.63,12.38,13.38s18.64,7.27,25.59,11.79C487.41,32.52,493.46,40,492.45,46.57Z"/>
            </g>
        </g>
        <g id="Hinteres_Transparent" data-name="Hinteres Transparent">
            <g id="Füllung_Kopie" data-name="Füllung Kopie">
                <path class="cls-35"
                      d="M397.2,1021.76l8.72,93.65s3.75,26.73,4.5,54.29.43,54.27.43,54.27,31.21,18,61.59,64.41c31.63,48.38,58.21,99.57,58.21,99.57s-27.7,59.61-99.33,71.26c-63.37,10.3-105,32.8-121.87,45.17S263.32,1537,263.32,1537l4.5-29.25v-36s-40.5-11.25-75.37-43.88-40.5-50.62-40.5-50.62H90.07s-13.5-99-3.37-194.63S107,1046.51,107,1046.51Z"/>
                <path class="cls-35"
                      d="M555.7,1202.88c-.43,6.78-3.25,72.75-16.92,125.65a269.42,269.42,0,0,0-8.13,59.42s-13.58-26.91-47.95-83.54c-38.4-63.25-71.85-80.44-71.85-80.44s1-27.84-.43-54.27c-1.38-25.84-4.5-54.29-4.5-54.29L554.49,1108S557.39,1175.88,555.7,1202.88Z"/>
            </g>
            <g id="Innere_Konturen_Kopie_Kopie_Kopie" data-name="Innere Konturen Kopie Kopie Kopie">
                <polygon class="cls-36"
                         points="254.89 1187.51 121.39 1291.55 259.39 1452.26 363.64 1361.51 254.89 1187.51"/>
                <path class="cls-36" d="M410.85,1224s-1.46,67.79-19.46,134.54a1036.67,1036.67,0,0,1-42.81,124.36"/>
                <line class="cls-36" x1="233.14" y1="1138.01" x2="267.82" y2="1471.76"/>
                <path class="cls-37"
                      d="M90.42,1149.84s45.11-2.93,75.59-5.18c38.25-2.81,67.13-6.65,67.13-6.65s50.11-10.59,92.86-15.65,79.92-6.95,79.92-6.95"/>
                <line class="cls-37" x1="231.41" y1="1035.9" x2="233.14" y2="1138.01"/>
            </g>
            <g id="Kontur_Kopie" data-name="Kontur Kopie">
                <g class="cls-38">
                    <polyline class="cls-5" points="385.24 1022.78 397.2 1021.76 398.31 1033.71"/>
                    <path class="cls-6" d="M400,1051.88l5.92,63.53s3.75,26.73,4.5,54.29c.32,11.9.45,23.65.48,33.15"/>
                    <path class="cls-5" d="M410.92,1212c0,7.38-.07,12-.07,12a99.72,99.72,0,0,1,9.84,6.85"/>
                    <path class="cls-7"
                          d="M434.72,1242.84a252,252,0,0,1,37.72,45.54c19.78,30.26,37.59,61.62,48.16,80.86"/>
                    <path class="cls-5" d="M525,1377.36c3.6,6.68,5.63,10.59,5.63,10.59a92.83,92.83,0,0,1-6,10.37"/>
                    <path class="cls-8"
                          d="M512.2,1414.52a136.24,136.24,0,0,1-80.88,44.69c-63.37,10.3-105,32.8-121.87,45.17-8,5.87-18.78,13.5-27.9,19.91"/>
                    <path class="cls-5" d="M273.17,1530.16l-9.85,6.85,1.83-11.86"/>
                    <polyline class="cls-9" points="267.13 1512.3 267.82 1507.76 267.82 1490.26"/>
                    <path class="cls-5" d="M267.82,1483.76v-12s-4.31-1.2-11.32-3.94"/>
                    <path class="cls-10" d="M241,1461a200.83,200.83,0,0,1-48.5-33.08c-14.58-13.64-24-24.72-30.13-33"/>
                    <path class="cls-5" d="M157.51,1387.87c-4.42-7-5.56-10.61-5.56-10.61H140"/>
                    <line class="cls-11" x1="128.11" y1="1377.26" x2="107.99" y2="1377.26"/>
                    <path class="cls-5" d="M102.07,1377.26h-12s-.58-4.28-1.41-11.92"/>
                    <path class="cls-12"
                          d="M86.82,1346.61c-3.22-36.67-6.78-101.06-.12-164,6-56.83,12-94.19,15.93-115.15"/>
                    <path class="cls-5" d="M104.41,1058.23c1.6-8,2.54-11.72,2.54-11.72l12-1"/>
                    <line class="cls-13" x1="137.66" y1="1043.89" x2="375.86" y2="1023.58"/>
                </g>
                <path class="cls-39"
                      d="M530.65,1388c-1.83-33.19,17-84.14,21.8-140a997,997,0,0,0,2-140l-148.57,7.38s6.65,39.1,4.93,108.56"/>
            </g>
        </g>
    </g>
</svg>
